<svg width="1920" height="1080" version="1.1" viewBox="0 0 508 285.75" xmlns="http://www.w3.org/2000/svg">
 <defs>
  <clipPath id="clipPath32823">
   <g transform="scale(1.0035 .99655)" stroke-width=".65646" aria-label="Rubina Huria  } ">
    <path d="m173.39 66.423h2.2156q10.278 0 12.555 8.0621 0.30771 3.0156-0.12309 5.2312-2.7079 13.416-26.402 29.725-8.0621 5.1081-22.155 8.8622-17.601 3.508-28.125 3.508l-1.8463 0.49234q4.985 17.909 23.448 55.389 14.77 29.725 30.895 53.604 2.7079 2.2156 3.5695 2.2156 0.18463-0.92315 2.8925-1.354 1.6617 0.73852 1.5386 1.354-1.1078 2.2155-3.508 2.2155h-2.6464q-6.9544-0.92314-23.325-31.941-22.648-37.849-36.618-78.344l-1.2924-4.4311 1.477-0.92315q32.372 0 56.004-14.216 19.509-15.324 21.786-26.956 1.8463-9.0468-9.4776-10.278h-1.2924q-13.539 0-38.772 19.14-19.14 16.432-34.279 35.818-18.894 25.294-44.496 67.39-1.477 1.7232-3.4464 1.7232h-1.2924q-0.4308 0-1.4155-1.7232 1.1693-5.9081 43.819-77.544l28.494-44.803 2.2771-0.4308h1.2924q0.73851 0 0.98468 1.8463-0.80005 3.9388-3.4464 3.9388-19.755 30.095-46.711 76.19l-0.12309 0.43081h0.49234q14.647-23.263 35.449-46.526 8.6776-9.6007 22.771-20.74 23.325-16.924 38.834-16.924zm-98.038 84.683q-0.18463 0.73851-1.2924 2.2156l-0.12309 0.4308h0.49234q0.18463-0.80006 1.2309-2.2156l0.12309-0.4308z"/>
    <path d="m133.14 129.69h1.4155q0.80006 0.18462 0.61543 0.92314l-0.18463 0.92315q-6.0312 10.524-6.2158 11.447 0.73852 0 8.616-7.5082l1.477-0.92315h0.49234l2.0925 0.49234-0.18463 0.92315q-0.24617 1.1078-2.4617 5.7235l0.73851 0.4308q1.1078 0 12.801-6.1543 1.6001 0.61543 1.477 1.2924l-0.12309 0.4308q-8.0621 6.0928-13.663 6.6466h-2.2155q-3.1387 0-2.7079-2.2155-4.1849 3.508-6.4005 3.508h-3.1387q-1.2309-0.43081-0.80006-2.6464 6.2774-13.293 8.3698-13.293z"/>
    <path d="m194.26 72.454q1.6617 0.61543 1.5386 1.2924-0.24617 1.3539-27.079 40.311l-15.263 24.863h0.49235q6.9544-7.5698 12.124-7.5698h3.1387q0.55389 0 1.7848 2.2155l-0.30772 1.354q-0.55388 2.8925-7.4467 8.8622 3.631-1.5386 11.201-7.5698h0.43081l2.154 0.49234-0.18463 0.92315q-12.493 11.447-23.202 11.447h-2.2156l-2.0925-0.36926q-6.2774 9.1084-9.3545 11.447h-1.8463l-1.1078-0.86161q32.064-53.973 54.527-84.191l-0.24617-0.92314q1.2309-1.7232 2.9541-1.7232zm-42.649 74.036-0.0615 0.36925q10.032-4.0003 15.14-11.447l0.18463-0.92314q0.18463-0.92315-0.73852-0.92315-4.6773 1.1078-14.524 12.924z"/>
    <path d="m194.19 107.96h2.7079l-0.55389 2.7079q-4.4926 1.2924-5.6004 1.2924h-1.2924q-0.92314 0-0.73852-0.8616 0.12309-0.61543 5.4773-3.1387zm-14.647 20.432h1.7232q0.67698 0 0.98469 1.2924l-0.0615 0.4308q-0.30772 1.477-6.8313 12.001l-0.4308 2.2155q6.462-3.1387 14.586-8.3698h0.36926q0.80006 0.36926 1.7848 0.36926l-0.30772 1.3539q-9.4161 7.3852-17.417 9.7238h-1.3539q-2.7079 0-2.2156-2.5848 0.61543-3.1387 7.7544-14.216-0.30771-0.92314-0.18463-1.2924z"/>
    <path d="m203.61 128.21h1.7847q0.61543 0 1.0462 1.2924l-0.36925 1.7232q-0.36926 2.0309-8.1237 14.216 1.1078 0 13.047-9.7853h2.2156q0.8616 0.12309 0.67697 0.92315l-0.12308 0.49234q-11.878 11.447-16.432 11.447h-1.7232l-2.154-0.36925 0.49234-2.2156q0.36926-2.0309 7.939-13.786h-0.43081q-13.601 13.786-14.647 13.786h-3.1387q-0.80006 0-0.61543-0.92314l0.0615-0.49235q1.0462-5.0465 7.939-11.078h1.2924q0.92314 0.12308 0.73851 0.92314l-0.18463 0.8616-0.67697 0.92315h0.49234q7.5698-7.939 10.893-7.939z"/>
    <path d="m228.72 126.37h1.354q0.8616 0.18462 0.67697 0.92314l-0.0615 0.4308q-7.7544 12.186-8.4929 16.001h0.36925q5.2927-2.5848 14.093-8.0621h0.4308q0.61543 0.49235 1.6617 0.49235l-0.24617 1.2924q-11.878 8.8622-16.863 8.8622h-1.354q-2.7079 0-2.154-2.5848l0.0615-0.49234q0.67697-3.1387 1.9078-4.8619l0.12309-0.49234h-0.4308q-4.985 5.3542-9.0468 5.3542h-0.92314q-2.3386 0-2.4002-1.354l0.24617-1.2924q1.0462-5.1696 8.4929-9.3545 2.7079-1.2924 4.7388-1.2924 1.8463 0.49234 3.0156 0.49234 4.1234-4.0618 4.8004-4.0618zm-16.863 13.724h0.36925q7.7544-5.6004 7.939-6.6466l-0.67698-0.4308h-0.92314q-3.8157 1.8463-6.6466 6.6466z"/>
    <path d="m391.93 37.928q1.6617 0.61543 1.477 1.2924-4.8619 2.6463-5.1081 3.508-34.772 51.942-55.081 84.622h9.3545q0.61543 0 0.98469 1.4155l-0.0615 0.36926q-0.18463 0.92314-1.0462 0.92314h-11.078q-57.727 93.668-60.004 98.407l-0.0616 0.36926q0.61543 1.477 0.4308 2.6464l-1.0462 0.49234h-1.2924q-3.1387 0-2.4617-3.508 2.3386-4.985 60.004-98.407-1.477 0-12.678-0.49234-25.479 0-39.264 0.92314-21.355 33.787-36.064 58.466h0.49235q0.8616 0.18462 0.73851 0.92314-1.5386 2.2156-4.0618 2.2156h-0.43081l-2.154-0.49235 0.12309-0.4308q0.61543-3.3233 36.987-61.112h-3.9388q-30.402 0-51.758 1.7232-0.30771 1.4155-1.1078 1.4155h-3.1387q-3.2618 0-3.2002-1.4155l0.0616-0.4308q0.67697-3.508 48.927-3.508h4.0003q3.7541 0 12.124-0.49235 26.279-42.649 51.388-77.975l2.3386-0.36926q1.7232 0.61543 1.5386 1.2924-28.433 40.865-50.834 77.052h51.758q24.433-40.064 57.42-87.699 3.4464-1.7232 5.7235-1.7232z"/>
    <path d="m342.02 129.69h1.4155q0.80006 0.18462 0.61543 0.92314l-0.18463 0.92315q-6.0312 10.524-6.2158 11.447 0.73852 0 8.616-7.5082l1.477-0.92315h0.49234l2.0925 0.49234-0.18463 0.92315q-0.24617 1.1078-2.4617 5.7235l0.73852 0.4308q1.1078 0 12.801-6.1543 1.6001 0.61543 1.477 1.2924l-0.12309 0.4308q-8.0621 6.0928-13.663 6.6466h-2.2155q-3.1387 0-2.7079-2.2155-4.1849 3.508-6.4005 3.508h-3.1387q-1.2309-0.43081-0.80006-2.6464 6.2774-13.293 8.3698-13.293z"/>
    <path d="m366.02 124.7h0.43081q4.0003 0 3.0771 4.4311-1.8463 2.9541-2.0925 4.0618 2.2156 1.7232 2.7694 1.7232l-0.30772 1.7847q-0.18463 0.92315-2.3386 4.4311h0.49234q10.093-6.2158 11.385-6.2158h0.4308q0.92315 0.12308 0.80006 0.8616l-0.18463 0.92314q-8.8622 7.0774-13.416 7.0774h-0.80005q-3.1387 0-2.6464-2.6464 2.154-4.2465 2.2771-4.9234l-0.73852-0.4308q-11.324 14.647-16.555 22.586h-2.6463q-0.86161 0-0.67698-0.80006 6.0312-9.7853 17.232-24.371-1.2924 0-1.4155-4.0618l0.36925-1.7848q2.154-2.6463 4.5542-2.6463zm-1.2309 4.0618 0.73852 0.36926 0.24617-1.2924q-0.80006 0.0615-0.98469 0.92314z"/>
    <path d="m397.41 107.96h2.7079l-0.55389 2.7079q-4.4926 1.2924-5.6004 1.2924h-1.2924q-0.92314 0-0.73851-0.8616 0.12308-0.61543 5.4773-3.1387zm-14.647 20.432h1.7232q0.67697 0 0.98468 1.2924l-0.0615 0.4308q-0.30771 1.477-6.8313 12.001l-0.4308 2.2155q6.462-3.1387 14.586-8.3698h0.36926q0.80006 0.36926 1.7848 0.36926l-0.30772 1.3539q-9.4161 7.3852-17.417 9.7238h-1.3539q-2.7079 0-2.2156-2.5848 0.61543-3.1387 7.7544-14.216-0.30772-0.92314-0.18463-1.2924z"/>
    <path d="m410.76 126.37h1.3539q0.8616 0.18462 0.67698 0.92314l-0.0616 0.4308q-7.7544 12.186-8.4929 16.001h0.36926q5.2927-2.5848 14.093-8.0621h0.4308q0.61543 0.49235 1.6617 0.49235l-0.24617 1.2924q-11.878 8.8622-16.863 8.8622h-1.354q-2.7079 0-2.154-2.5848l0.0615-0.49234q0.67697-3.1387 1.9078-4.8619l0.12309-0.49234h-0.4308q-4.985 5.3542-9.0468 5.3542h-0.92305q-2.3386 0-2.4002-1.354l0.24617-1.2924q1.0462-5.1696 8.4929-9.3545 2.7079-1.2924 4.7388-1.2924 1.8463 0.49234 3.0156 0.49234 4.1234-4.0618 4.8004-4.0618zm-16.863 13.724h0.36926q7.7544-5.6004 7.939-6.6466l-0.67698-0.4308h-0.92314q-3.8157 1.8463-6.6466 6.6466z"/>
    <path d="m383.38 157.23q33.079 0 57.235 5.0773 4.5849 1.5078 4.7388 2.6771l-0.2154 1.1078q-0.6462 3.3233-60.804 4.8927-34.802 1.9694-38.249 5.2927-0.30772 0-0.76929 0.6462l-0.0923 0.46157q-0.89238 4.4311 28.525 5.785 8.8622 1.1078 8.616 2.4002l-0.27694 1.3232q-0.30772 1.5386-8.3698 4.0311-4.0618 0.8616-5.2619 0.8616-0.33849-0.2154-0.58466-0.2154l0.0308-0.24617q0.0923-0.49234 6.5543-1.754 5.6927-1.8463 6.0312-3.5387 0.27694-1.477-26.371-3.3233-11.662-1.7232-10.924-5.3235 1.3539-6.8313 63.481-8.216 36.403-1.477 36.803-3.5387-0.46157-4.308-45.757-7.0774-9.5699-0.2154-15.016-0.2154-30.279 0-66.959 6.6466l-0.12309 0.6462h-0.8616q-2.6463 0-2.4617-0.89237 2.154-1.1078 22.74-3.9695 26.956-3.5387 48.342-3.5387z"/>
   </g>
  </clipPath>
 </defs>
 <path d="m130.87 69.369-8.3054 1.625-32.663 51.542-30.057 51.931c-2.4609 4.5333-4.4832 3.6029-8.7566 15.386l3.25 0.45524 23.381-38.767 15.543-22.148 18.263-22.537 15.154-14.766 14.377-12.046 14.377-8.1599 13.6-4.6628 9.7142-0.38857 5.0514 3.0183 3.0419 4.1604-0.71047 5.644-3.8857 8.9371-10.491 11.657-7.3828 6.2171-14.766 7.3828-14.766 3.8857-12.823 2.3314-9.3256 0.38857-5.8285 0.77713 6.9942 18.263 15.737 35.165 15.348 28.56 13.988 22.926 5.8285 6.2171 3.8857 1.9428 2.3314-1.5543-38.857-67.222-10.103-20.594v-13.211l12.434-1.9428-6.2171 10.103-1.1657 3.8857 5.44-0.77714 7.7714-7.3828-2.3314 5.8285 0.77714 1.1657 5.44-1.1657 5.44-2.72 1.9428-1.1657 42.743-64.502-54.4 84.708 14.377-17.097 5.0514-4.6628 5.8285-4.2743h3.4971l1.1626 2.0831-2.7476 4.1214-5.6326 4.6709-4.2588 2.4728-5.3578 2.0607h-1.099l6.869-0.13738 6.4568-2.3354 6.7316-3.5719 4.1214-3.4345 6.0447-8.3802-6.3195 11.54-2.0607 4.2588 1.9233 0.68691 4.3962-2.3355 5.77-3.1597 1.7859-1.2364 6.1821-5.3578-7.1438 9.8914 1.099 0.82428 13.738-13.051 3.5719-1.9233 1.099 0.6869-3.1597 6.3195-5.083 8.5175 0.13738 2.0607 3.2971-1.2364 6.4568-3.984 2.3354-2.7476 1.9233-1.6486 3.0224-3.1597 2.6102-2.4728 3.4345-1.099 3.2971 0.6869 0.27476 0.82427-3.7092-0.13738-3.1597 0.6869-3.984 4.1214-2.3355 3.0224 0.6869 1.3738 2.7476-0.41214 5.6326-3.7092 4.2588-3.4345 3.8466-3.8466 2.3355-2.7476-7.8306 12.089-0.96166 3.8466 0.27476 1.3738 3.2971-0.41214 4.6709-2.3355 5.77-3.8466 2.7476-1.2364-4.6632-66.225 30.697-27.2 62.56 6.9942-21.76 32.251-27.2 42.354-31.086 48.96-10.491 15.543 144.94-152.32 12.046 1.5543-4.2743 2.3314-26.811 40.411-29.531 44.297-36.137 59.451-24.091 38.08-2.3314 6.2171-49.737-13.988 8.16-39.634 14.766-41.577-3.1086-5.8285h45.074l36.137-0.77713 22.537 0.38856 0.0921 1.2979v0.82428l-2.7476 4.3962-3.1597 5.2204-1.3738 3.7093 2.3354 0.82428 4.1214-2.0607 4.6709-4.9457 2.4728-2.1981v0.6869l-2.4728 4.2588-0.82429 2.4728 2.4728 0.41214 5.4952-1.3738 5.3578-3.7092-12.227 18.958 21.294-27.613 0.13739-2.885-1.2364-0.82428-3.0224 1.5112-0.68689 2.7476 1.7859 3.0224 2.3354 1.7859 1.3738 0.96166-2.4728 4.8083-0.13737 2.0607 2.885-0.6869 9.6166-4.9457 5.3578-7.1438-8.6549 14.288 1.5112 2.1981 7.1438-2.6102 7.1438-3.984 1.9233-2.1981 1.099-1.9233 3.1597-2.6102 3.1597-1.7859 2.7476-0.41213 2.0607 0.41213 0.54951 0.96166h-5.2204l-2.7476 1.7859-2.6102 2.3355-2.6102 3.2971-0.54954 1.3738 0.82428 1.2364 3.7092-1.5112 3.2971-2.3355 3.5719-3.1597 3.0224-1.9233 3.2971-4.2588 1.7859-1.5112-7.8307 12.639-1.3738 3.4345 0.96168 1.3738h1.7859l3.8466-1.9233 7.0064-3.8466 3.8466-2.6102-14.15-26.789-6.5942-0.82427-5.6326 2.0607-14.786-15.003 30.697-53.622-26.764-17.787s-85.175-1.099-90.121 4.9457c-4.9457 6.0447-65.942 24.728-67.591 26.926-1.6486 2.1981-16.486 30.224-16.486 30.224l-10.166 21.706-2.7476 0.82428-6.1821 2.1981h-8.3802l19.233-23.08-2.954-37.409-106.47 10.103-69.942 158.54 209.05 36.525 97.919-24.091v-60.034l-9.1314-0.19428-4.2743-6.9942 6.4114-1.36 9.5199-1.36 16.903-2.1371 14.183-1.5543 21.371-0.77714 20.011 0.19428 19.234 1.7486 11.851 1.5543 8.7428 1.9428 2.3314 1.5543v1.1657l-0.58285 0.58285-2.6228 0.48572-3.9828 0.77713-16.708 1.36-27.588 1.1657-10.2 0.0971-12.531 0.97142-7.9656 0.58286-7.2857 0.97142-5.1485 0.97142-3.4971 1.2628-1.8457 0.67999-0.77714 2.04 1.36 1.5543 3.8857 1.5543 4.8571 1.1657 5.7314 0.38857 8.0628 0.77714 7.9657 0.58285 4.76 1.1657 0.87426 0.68v0.77714l-1.2628 1.1657-1.9429 1.1657-4.1771 1.36-3.2057 0.87428-1.7486 0.0971-5.8285 1.5543" clip-path="url(#clipPath32823)" fill="none" stroke="#f5f500" stroke-linecap="round" stroke-linejoin="round" stroke-width="3.9688"/>
</svg>
